<svg width="20" height="20" viewBox="0 0 20 20" fill="none" xmlns="http://www.w3.org/2000/svg">
<path fill-rule="evenodd" clip-rule="evenodd" d="M10.0006 1.66663C7.73774 1.66663 7.45322 1.67655 6.56328 1.71625C5.67665 1.75595 5.07123 1.89821 4.5419 2.10332C3.99271 2.31506 3.52955 2.60288 3.06638 3.06605C2.60322 3.52921 2.3187 3.99569 2.10366 4.54156C1.89854 5.07089 1.75629 5.67631 1.71659 6.56625C1.67689 7.45288 1.66696 7.7374 1.66696 10.0003C1.66696 12.2632 1.67689 12.5477 1.71659 13.4376C1.75629 14.3243 1.89854 14.9297 2.10366 15.4623C2.31539 16.0115 2.60322 16.4747 3.06638 16.9378C3.52955 17.401 3.99602 17.6855 4.5419 17.9006C5.07123 18.1057 5.67665 18.2479 6.56659 18.2876C7.45653 18.3273 7.73774 18.3373 10.0039 18.3373C12.2701 18.3373 12.5513 18.3273 13.4413 18.2876C14.3279 18.2479 14.9333 18.1057 15.466 17.9006C16.0152 17.6888 16.4783 17.401 16.9415 16.9378C17.4047 16.4747 17.6892 16.0082 17.9042 15.4623C18.1093 14.933 18.2516 14.3276 18.2913 13.4376C18.331 12.5477 18.3409 12.2665 18.3409 10.0003C18.3409 7.73409 18.331 7.45288 18.2913 6.56294C18.2516 5.67631 18.1093 5.07089 17.9042 4.53825C17.6925 3.98907 17.4047 3.5259 16.9415 3.06274C16.4783 2.59957 16.0119 2.31506 15.466 2.10002C14.9367 1.8949 14.3312 1.75264 13.4413 1.71294C12.548 1.67655 12.2635 1.66663 10.0006 1.66663ZM10.0008 5.72257C7.63868 5.72257 5.71986 7.63809 5.71986 10.0035C5.71986 12.369 7.63538 14.2845 10.0008 14.2845C12.3663 14.2845 14.2818 12.369 14.2818 10.0035C14.2818 7.63809 12.3663 5.72257 10.0008 5.72257ZM10.0008 12.7792C8.46576 12.7792 7.22183 11.5353 7.22183 10.0002C7.22183 8.46517 8.46576 7.22124 10.0008 7.22124C11.5359 7.22124 12.7798 8.46517 12.7798 10.0002C12.7798 11.5353 11.5359 12.7792 10.0008 12.7792ZM15.4495 5.55061C15.4495 6.10241 15.0022 6.54973 14.4504 6.54973C13.8986 6.54973 13.4513 6.10241 13.4513 5.55061C13.4513 4.99882 13.8986 4.5515 14.4504 4.5515C15.0022 4.5515 15.4495 4.99882 15.4495 5.55061Z" fill="white"/>
</svg>
