<svg width="20" height="20" viewBox="0 0 20 20" fill="none" xmlns="http://www.w3.org/2000/svg">
<path d="M16.6206 6.65334C16.6274 6.80001 16.6274 6.94001 16.6274 7.08668C16.6341 11.5334 13.1952 16.6667 6.90628 16.6667C5.05142 16.6667 3.23041 16.14 1.66664 15.1534C1.93742 15.1867 2.20821 15.2 2.47899 15.2C4.01568 15.2 5.51175 14.6934 6.72351 13.7534C5.26128 13.7267 3.97506 12.7867 3.52827 11.4134C4.04276 11.5134 4.57078 11.4934 5.07173 11.3534C3.48088 11.0467 2.33683 9.66669 2.33006 8.06001C2.33006 8.04668 2.33006 8.03335 2.33006 8.02001C2.80393 8.28001 3.33872 8.42668 3.88029 8.44001C2.38422 7.45334 1.91712 5.48667 2.82424 3.94667C4.56401 6.05334 7.12291 7.32668 9.87135 7.46668C9.5938 6.30001 9.9729 5.07334 10.8597 4.24667C12.2339 2.97333 14.4002 3.04 15.6999 4.39333C16.4649 4.24667 17.2028 3.96667 17.873 3.57333C17.6157 4.35333 17.0809 5.01334 16.3701 5.43334C17.0471 5.35334 17.7105 5.17334 18.3333 4.90667C17.873 5.58667 17.2908 6.17334 16.6206 6.65334Z" fill="white"/>
</svg>
