<svg width="47" height="14" viewBox="0 0 47 14" fill="none" xmlns="http://www.w3.org/2000/svg">
<g clip-path="url(#clip0_461_1104)">
<path d="M11.9903 0.564297L9.15713 11.9654C8.72669 13.7307 7.33583 13.9964 6.02006 13.9964C4.70429 13.9964 3.31346 13.7265 2.8577 11.9654L0.0244849 0.564297C0.0244849 0.539754 -0.000854492 0.515215 -0.000854492 0.46613C0.00128153 0.423822 0.012293 0.382379 0.0315192 0.34434C0.0507453 0.3063 0.0777937 0.272462 0.110975 0.244895C0.144155 0.217328 0.182785 0.196614 0.224509 0.184016C0.266233 0.171417 0.310168 0.167201 0.35363 0.171625H2.98429C3.07663 0.171544 3.16588 0.203776 3.23566 0.262392C3.30544 0.321009 3.35105 0.402069 3.36409 0.490672L5.74154 11.1072C5.79218 11.3036 5.84282 11.3772 6.02006 11.3772C6.1973 11.3772 6.24794 11.3036 6.29858 11.1072L8.67606 0.490672C8.6867 0.405457 8.72814 0.326656 8.79303 0.268248C8.85792 0.209841 8.94205 0.175606 9.03052 0.171625H11.6865C11.8891 0.171625 12.0157 0.269794 12.0157 0.46613C12.0157 0.490672 11.9903 0.515212 11.9903 0.564297Z" fill="#E71C4D"/>
<path d="M22.8168 2.77084H19.7304V13.4831C19.7279 13.5799 19.6871 13.6722 19.6164 13.7407C19.5457 13.8093 19.4505 13.8488 19.3506 13.8512H16.8692C16.7692 13.8488 16.6741 13.8093 16.6033 13.7407C16.5326 13.6722 16.4918 13.5799 16.4894 13.4831V2.77084H13.403C13.3056 2.77404 13.211 2.73965 13.1397 2.67523C13.0685 2.6108 13.0266 2.52162 13.0232 2.42726V0.539205C13.0266 0.444844 13.0685 0.355656 13.1397 0.291233C13.211 0.226809 13.3056 0.192419 13.403 0.195617H22.8133C22.9134 0.19173 23.0112 0.225198 23.0865 0.289121C23.1619 0.353045 23.2091 0.442551 23.2184 0.539205V2.42726C23.2091 2.52331 23.1624 2.61232 23.0878 2.67615C23.0132 2.73999 22.9163 2.77385 22.8168 2.77084Z" fill="#E71C4D"/>
<path d="M32.806 13.7554C31.5845 13.9398 30.3489 14.0219 29.1128 14.0008C26.6594 14.0008 24.5089 13.3881 24.5089 10.0529V3.94784C24.5089 0.588953 26.6847 -5.22288e-05 29.1363 -5.22288e-05C30.3637 -0.0216191 31.5907 0.0604926 32.8034 0.245363C33.0819 0.294447 33.1832 0.368078 33.1832 0.613499V2.32975C33.1807 2.42664 33.14 2.51892 33.0693 2.58745C32.9985 2.65598 32.9034 2.69552 32.8034 2.69788H28.9644C28.079 2.69788 27.7499 2.99239 27.7499 3.94869V5.61585H32.6576C32.7575 5.61821 32.8527 5.65776 32.9235 5.72629C32.9942 5.79483 33.0349 5.8871 33.0374 5.98399V7.72478C33.0349 7.82168 32.9942 7.91395 32.9235 7.98248C32.8527 8.05101 32.7575 8.09055 32.6576 8.09291H27.7499V10.0546C27.7499 11.0109 28.079 11.3054 28.9644 11.3054H32.806C32.906 11.3077 33.0012 11.3473 33.0719 11.4158C33.1426 11.4844 33.1834 11.5766 33.1858 11.6735V13.3898C33.1884 13.6081 33.0871 13.7308 32.806 13.7554Z" fill="#E71C4D"/>
<path d="M46.7459 13.829H43.7355C43.6334 13.8357 43.5314 13.8138 43.4418 13.7659C43.3522 13.718 43.2787 13.6463 43.2299 13.5591L40.7512 9.6848L38.5256 13.4854C38.399 13.7063 38.2471 13.8536 38.0454 13.8536H35.2375C35.202 13.8582 35.1659 13.8552 35.1317 13.8448C35.0974 13.8344 35.066 13.817 35.0394 13.7936C35.0129 13.7702 34.992 13.7415 34.9781 13.7095C34.9642 13.6775 34.9577 13.6429 34.959 13.6082C34.9599 13.5626 34.9779 13.519 35.0097 13.4854L38.9814 6.84045L34.9843 0.539057C34.9639 0.501359 34.9551 0.458761 34.959 0.41635C34.965 0.348939 34.997 0.286189 35.0486 0.240679C35.1003 0.195168 35.1678 0.170255 35.2375 0.170928H38.2986C38.5012 0.170928 38.6531 0.367263 38.7789 0.514516L41.131 4.23815L43.2561 0.514516C43.3002 0.422932 43.3672 0.34351 43.4511 0.283492C43.535 0.223475 43.633 0.184775 43.7363 0.170928H46.5442C46.5793 0.168756 46.6144 0.173433 46.6475 0.184687C46.6807 0.19594 46.7111 0.213541 46.7371 0.236437C46.7631 0.259332 46.7841 0.287057 46.7988 0.317964C46.8135 0.348871 46.8216 0.38233 46.8227 0.41635C46.8227 0.465434 46.7974 0.489973 46.7974 0.539057L42.8763 7.03679L46.9494 13.4854C46.9896 13.543 47.0076 13.6126 47 13.6818C47 13.7554 46.8987 13.829 46.7459 13.829Z" fill="#E71C4D"/>
</g>
<defs>
<clipPath id="clip0_461_1104">
<rect width="47" height="14" fill="white"/>
</clipPath>
</defs>
</svg>
