<svg width="20" height="20" viewBox="0 0 20 20" fill="none" xmlns="http://www.w3.org/2000/svg">
<path fill-rule="evenodd" clip-rule="evenodd" d="M16.5214 4.52359C17.2354 4.71581 17.7983 5.27871 17.9905 5.99265C18.3475 7.29695 18.3337 10.0154 18.3337 10.0154C18.3337 10.0154 18.3337 12.7201 17.9905 14.0244C17.7983 14.7383 17.2354 15.3012 16.5214 15.4935C15.2171 15.8367 9.99994 15.8367 9.99994 15.8367C9.99994 15.8367 4.79646 15.8367 3.47843 15.4797C2.7645 15.2875 2.20159 14.7246 2.00937 14.0107C1.66614 12.7201 1.66614 10.0017 1.66614 10.0017C1.66614 10.0017 1.66614 7.29695 2.00937 5.99265C2.20159 5.27871 2.77823 4.70208 3.47843 4.50986C4.78273 4.16663 9.99994 4.16663 9.99994 4.16663C9.99994 4.16663 15.2171 4.16663 16.5214 4.52359ZM12.6769 10.0017L8.33836 12.5004V7.50291L12.6769 10.0017Z" fill="white"/>
</svg>
